# xmcd
#
# Track frame offsets: 
#        150
#        11488
#        22789
#        31946
#        47158
#        61069
#        73316
#        90786
#        104926
#        115140
#        133795
#        151911
#        173252
#
# Disc length: 2616 seconds
#
# Revision: 0
# Processed by: cddbd v1.5.1PL2 Copyright (c) Steve Scherf et al.
# Submitted via: ExactAudioCopy v0.90b4
#
DISCID=9a0a360d
DTITLE=J.B. Beverley and The Wayward Drifters - Dark Bar and A Juke Box
DYEAR=2006
DGENRE=Country
TTITLE0=Shoulda Thought About It
TTITLE1=Dark Bar and A Juke Box
TTITLE2=Memories of You
TTITLE3=Before They Gets Those Cuffs on Me
TTITLE4=Lonesome, Loaded and Cold
TTITLE5=Chase Down These Blues
TTITLE6=Highway Blue
TTITLE7=Drinkin' Bourbon
TTITLE8=Going To Town
TTITLE9=Ghost of Old D.C.
TTITLE10=Raining in Philly
TTITLE11=Train Song
TTITLE12=Wayward Drifter
EXTD=
EXTT0=
EXTT1=
EXTT2=
EXTT3=
EXTT4=
EXTT5=
EXTT6=
EXTT7=
EXTT8=
EXTT9=
EXTT10=
EXTT11=
EXTT12=
PLAYORDER=
